<?xml version="1.0" standalone="no"?>
<!DOCTYPE svg PUBLIC "-//W3C//DTD SVG 20010904//EN"
 "http://www.w3.org/TR/2001/REC-SVG-20010904/DTD/svg10.dtd">
<svg version="1.0" xmlns="http://www.w3.org/2000/svg"
 width="500.000000pt" height="500.000000pt" viewBox="0 0 500.000000 500.000000"
 preserveAspectRatio="xMidYMid meet">

<g transform="translate(0.000000,500.000000) scale(0.100000,-0.100000)"
fill="#000000" stroke="none">
<path d="M2031 4274 c0 -11 3 -14 6 -6 3 7 2 16 -1 19 -3 4 -6 -2 -5 -13z"/>
<path d="M4096 4098 c-14 -18 -32 -40 -40 -50 -8 -9 -13 -18 -11 -20 2 -2 -5
-5 -17 -5 -11 -1 -28 -9 -37 -17 -10 -9 -21 -13 -26 -9 -4 5 -5 0 -2 -10 4
-11 1 -20 -8 -23 -8 -4 -13 -9 -11 -13 5 -7 -111 -211 -137 -241 -9 -11 -15
-20 -12 -20 4 0 -30 -64 -65 -122 -9 -16 -20 -25 -25 -20 -5 4 -5 2 -2 -4 7
-13 -97 -196 -107 -187 -4 4 -4 0 0 -10 4 -11 0 -19 -10 -23 -9 -3 -14 -10
-11 -14 3 -4 -4 -18 -14 -31 -10 -13 -21 -34 -25 -46 -4 -13 -12 -23 -17 -23
-5 0 -8 -3 -7 -7 3 -10 -92 -175 -106 -185 -5 -3 -11 -15 -12 -24 -2 -10 -9
-23 -16 -29 -7 -5 -14 -17 -16 -25 -5 -23 -66 -120 -75 -120 -4 0 -6 -4 -2 -9
3 -5 0 -15 -7 -23 -7 -7 -15 -22 -16 -33 -2 -11 -9 -27 -16 -35 -6 -8 -18 -27
-25 -42 -8 -15 -18 -25 -23 -22 -5 3 -8 2 -7 -3 4 -16 -13 -43 -24 -36 -6 3
-7 1 -3 -5 8 -14 -234 -263 -247 -255 -6 3 -7 1 -3 -5 8 -13 -48 -55 -59 -44
-5 4 -5 2 -2 -4 4 -6 -3 -20 -15 -30 -14 -12 -18 -14 -13 -4 5 8 -11 -5 -34
-30 -23 -25 -39 -39 -35 -31 5 9 3 12 -4 7 -7 -4 -12 -13 -12 -19 -1 -7 -16
-24 -36 -38 -19 -15 -69 -58 -112 -97 -115 -103 -138 -122 -146 -114 -4 4 -6
2 -4 -3 1 -6 -17 -28 -41 -50 -61 -55 -208 -207 -227 -233 -8 -12 -20 -20 -25
-16 -5 3 -8 2 -7 -3 3 -9 -57 -99 -69 -105 -7 -2 -22 -30 -51 -90 -2 -5 6 -8
17 -8 12 0 21 5 21 11 0 17 89 139 101 139 6 0 8 4 5 9 -3 5 9 23 28 39 19 17
33 32 31 34 -3 2 50 58 115 123 66 66 120 117 120 113 0 -3 21 15 48 42 26 26
94 87 152 135 128 106 209 176 271 233 25 23 51 42 58 42 6 0 10 3 9 8 -3 9
89 102 102 102 5 0 9 6 8 13 -2 6 3 11 10 9 8 -1 11 1 8 6 -7 11 38 55 47 46
4 -4 14 -1 24 7 10 8 2 -6 -17 -31 -46 -61 -53 -70 -89 -108 -17 -19 -31 -36
-31 -39 0 -10 -108 -131 -113 -127 -3 3 -8 -4 -12 -15 -4 -13 -11 -19 -18 -15
-7 4 -9 4 -5 -1 10 -11 -62 -96 -75 -88 -5 3 -7 1 -4 -5 4 -5 -5 -21 -20 -34
-16 -13 -40 -39 -54 -58 -15 -19 -58 -67 -96 -107 -38 -40 -65 -69 -59 -65 6
3 -9 -16 -33 -43 -24 -28 -47 -49 -52 -47 -5 1 -8 -2 -7 -7 4 -12 -121 -171
-133 -171 -5 0 -9 -5 -9 -11 0 -5 -18 -37 -40 -69 -39 -57 -48 -80 -32 -80 11
1 43 27 43 37 0 17 44 71 54 66 5 -4 7 -3 3 2 -9 9 48 91 77 111 11 8 20 18
20 22 0 4 4 6 8 4 5 -1 6 1 3 6 -7 12 70 103 79 94 5 -4 5 -2 2 4 -7 12 25 47
36 39 4 -3 5 -2 2 1 -8 12 16 45 27 38 6 -4 8 -3 5 2 -3 6 30 48 74 94 43 47
79 89 79 93 0 5 6 5 13 1 6 -4 9 -4 5 1 -9 9 81 110 97 110 6 0 10 5 10 10 0
6 6 17 13 25 7 8 22 27 33 43 11 15 25 25 30 21 5 -3 8 -2 7 3 -5 13 53 83 63
77 5 -3 8 -1 7 5 -5 15 82 122 93 115 6 -3 9 0 7 7 -1 8 18 43 43 79 26 36 52
76 59 90 8 15 15 20 18 12 5 -16 -159 -272 -170 -266 -5 3 -7 2 -6 -3 5 -14
-35 -72 -45 -66 -6 3 -7 1 -3 -6 4 -6 0 -14 -8 -17 -9 -3 -14 -10 -11 -14 3
-4 -2 -13 -10 -20 -8 -7 -15 -16 -15 -21 0 -17 -88 -128 -95 -121 -5 4 -5 2
-1 -5 3 -6 -2 -18 -12 -25 -11 -7 -20 -17 -22 -23 -6 -27 -73 -114 -83 -108
-6 3 -7 1 -3 -5 7 -12 -109 -182 -125 -182 -5 0 -8 -3 -7 -7 4 -13 -22 -54
-31 -49 -4 3 -8 -1 -8 -8 0 -14 -62 -109 -75 -114 -4 -2 -8 -9 -8 -16 0 -19
-46 -77 -55 -68 -5 4 -5 1 -1 -6 4 -7 2 -20 -5 -28 -6 -8 -9 -17 -6 -20 8 -8
61 38 65 57 2 7 12 23 21 34 10 11 26 34 36 52 10 18 22 30 27 27 5 -3 7 -1 6
4 -4 13 61 112 74 112 6 0 8 3 5 6 -6 6 51 94 60 94 2 0 1 -5 -3 -12 -4 -7 -3
-8 5 -4 6 4 9 12 6 17 -8 12 30 60 40 51 5 -4 5 -2 2 4 -6 11 62 111 86 126 6
4 8 8 4 8 -5 0 2 13 15 29 12 16 50 67 82 114 33 47 64 83 69 80 4 -3 7 1 6 8
-4 16 49 99 62 99 5 0 9 7 9 16 0 9 5 12 12 8 7 -4 8 -3 4 4 -7 11 16 55 25
49 2 -1 3 0 2 2 -4 6 31 61 38 61 4 0 10 8 13 18 7 18 19 38 50 85 20 29 56
37 56 11 0 -9 -10 -30 -22 -47 -13 -18 -22 -33 -20 -35 4 -4 -60 -127 -69
-130 -5 -2 -9 -9 -9 -17 0 -21 -51 -125 -61 -125 -6 0 -7 -4 -4 -10 5 -8 -29
-88 -44 -100 -3 -3 -7 -13 -9 -23 -2 -10 -23 -61 -48 -112 -24 -51 -44 -98
-44 -104 0 -6 -5 -11 -10 -11 -6 0 -9 -3 -8 -7 5 -16 -46 -122 -55 -116 -6 3
-7 1 -3 -5 7 -12 -42 -132 -55 -132 -5 0 -8 -3 -7 -7 4 -19 -15 -62 -25 -56
-6 3 -7 1 -3 -5 4 -6 0 -25 -9 -41 -17 -35 -19 -51 -5 -51 5 0 19 19 31 43 12
23 26 45 31 48 5 3 9 8 7 10 -5 8 13 49 21 49 5 0 6 7 3 17 -5 12 -3 14 7 8 9
-5 11 -4 6 3 -4 6 3 31 16 54 12 24 22 45 23 48 0 3 13 31 28 64 15 32 27 63
27 68 0 5 4 6 10 3 5 -3 7 0 4 8 -3 8 2 21 10 30 8 8 13 17 11 19 -8 8 112
258 120 250 5 -4 5 -2 2 4 -4 6 3 30 14 53 11 23 24 52 29 66 6 16 15 23 24
19 13 -5 13 -11 1 -44 -8 -21 -21 -50 -31 -65 -9 -14 -14 -28 -11 -32 4 -3 -1
-20 -10 -37 -18 -35 -25 -84 -12 -91 9 -6 39 46 39 67 0 7 9 30 20 51 11 20
20 44 20 52 0 30 42 125 52 119 7 -5 8 -2 4 5 -12 18 13 71 30 64 8 -3 14 1
14 8 0 7 2 10 5 8 4 -5 -21 -84 -33 -103 -3 -6 -8 -20 -10 -31 -1 -11 -8 -38
-14 -60 -6 -22 -10 -46 -9 -54 1 -8 -2 -10 -10 -5 -8 4 -10 3 -5 -5 4 -6 2
-34 -5 -61 -7 -27 -9 -53 -5 -57 13 -14 32 23 45 91 8 40 17 63 24 59 6 -4 8
3 3 20 -3 14 -1 29 4 32 6 4 8 11 5 16 -4 5 -1 9 5 9 7 0 10 7 7 15 -12 30 79
245 124 294 11 11 19 23 19 26 0 3 24 47 53 98 28 51 58 104 66 119 8 15 18
25 23 22 5 -3 8 -2 7 3 -4 21 2 34 13 27 7 -5 9 -2 5 8 -3 9 2 24 11 35 9 10
18 25 20 33 2 8 7 17 11 20 3 3 12 16 18 30 7 14 26 48 43 75 16 28 33 57 37
65 42 81 155 273 166 281 5 3 8 8 7 10 -5 11 24 57 33 52 6 -3 7 -1 3 5 -9 15
18 55 29 44 5 -4 5 -2 1 5 -3 6 3 27 14 45 10 18 27 47 36 63 9 17 20 32 23
35 3 3 19 31 36 64 16 32 35 60 42 63 8 3 9 12 3 29 -5 13 -7 24 -4 24 4 0 1
7 -7 16 -8 9 -9 18 -3 22 14 10 36 62 44 104 5 27 4 38 -7 42 -7 3 -12 11 -11
18 2 7 -1 13 -7 13 -5 1 -27 9 -49 18 -59 26 -90 22 -120 -15z m99 -8 c3 -6
-1 -7 -9 -4 -18 7 -21 14 -7 14 6 0 13 -4 16 -10z m-94 -53 c-10 -9 -11 -8 -5
6 3 10 9 15 12 12 3 -3 0 -11 -7 -18z m39 -58 c17 -13 18 -17 5 -10 -33 17
-51 31 -40 31 6 0 21 -10 35 -21z m113 6 c-3 -9 -8 -14 -10 -11 -3 3 -2 9 2
15 9 16 15 13 8 -4z m-31 -39 c7 4 8 3 4 -4 -10 -16 -18 -15 -42 4 -18 14 -18
15 4 4 12 -6 28 -8 34 -4z m-36 -38 c5 -7 3 -8 -5 -4 -7 5 -19 0 -27 -10 -14
-18 -14 -18 -4 4 12 24 25 28 36 10z m35 -25 c13 -16 12 -17 -3 -4 -17 13 -22
21 -14 21 2 0 10 -8 17 -17z m-118 -78 c-3 -9 -8 -14 -10 -11 -3 3 -2 9 2 15
9 16 15 13 8 -4z m87 -25 c-6 -11 -13 -20 -16 -20 -2 0 0 9 6 20 6 11 13 20
16 20 2 0 0 -9 -6 -20z m-107 -15 c-3 -9 -8 -14 -10 -11 -3 3 -2 9 2 15 9 16
15 13 8 -4z m-140 -10 c-3 -9 -8 -14 -10 -11 -3 3 -2 9 2 15 9 16 15 13 8 -4z
m96 -62 c-12 -21 -27 -42 -32 -48 -11 -11 9 29 31 63 24 37 25 25 1 -15z m101
-3 c-6 -11 -13 -20 -16 -20 -2 0 0 9 6 20 6 11 13 20 16 20 2 0 0 -9 -6 -20z
m-30 -50 c-6 -11 -13 -20 -16 -20 -2 0 0 9 6 20 6 11 13 20 16 20 2 0 0 -9 -6
-20z m-117 -25 c-3 -9 -8 -14 -10 -11 -3 3 -2 9 2 15 9 16 15 13 8 -4z m-142
-18 c-10 -9 -11 -8 -5 6 3 10 9 15 12 12 3 -3 0 -11 -7 -18z m-70 -10 c-10 -9
-11 -8 -5 6 3 10 9 15 12 12 3 -3 0 -11 -7 -18z m139 -101 c-30 -49 -36 -46
-8 3 12 22 24 38 26 36 3 -2 -6 -20 -18 -39z m-180 -86 c-6 -11 -13 -20 -16
-20 -2 0 0 9 6 20 6 11 13 20 16 20 2 0 0 -9 -6 -20z m203 -45 c-3 -9 -8 -14
-10 -11 -3 3 -2 9 2 15 9 16 15 13 8 -4z m-23 -45 c-6 -11 -12 -20 -14 -20 -2
0 -2 9 1 20 3 11 9 20 15 20 5 0 4 -9 -2 -20z m-129 -47 c-5 -10 -17 -27 -26
-38 -16 -19 -17 -19 -3 5 26 46 29 50 34 50 3 0 0 -8 -5 -17z m84 -30 c-15
-27 -32 -52 -38 -58 -6 -5 2 13 18 40 15 28 30 53 32 58 2 4 7 7 10 7 2 0 -7
-21 -22 -47z m-302 -8 c-3 -9 -8 -14 -10 -11 -3 3 -2 9 2 15 9 16 15 13 8 -4z
m30 -60 c-3 -9 -8 -14 -10 -11 -3 3 -2 9 2 15 9 16 15 13 8 -4z m102 -52 c-15
-27 -32 -52 -38 -58 -6 -5 2 13 18 40 15 28 30 53 32 58 2 4 7 7 10 7 2 0 -7
-21 -22 -47z m118 32 c-3 -9 -8 -14 -10 -11 -3 3 -2 9 2 15 9 16 15 13 8 -4z
m-25 -45 c-7 -10 -14 -17 -17 -15 -4 4 18 35 25 35 2 0 -1 -9 -8 -20z m-36
-62 c-7 -7 -12 -8 -12 -2 0 6 3 14 7 17 3 4 9 5 12 2 2 -3 -1 -11 -7 -17z
m-321 -41 c-10 -9 -11 -8 -5 6 3 10 9 15 12 12 3 -3 0 -11 -7 -18z m299 3 c-6
-11 -13 -20 -16 -20 -2 0 0 9 6 20 6 11 13 20 16 20 2 0 0 -9 -6 -20z m-110
-20 c0 -5 -5 -10 -11 -10 -5 0 -7 5 -4 10 3 6 8 10 11 10 2 0 4 -4 4 -10z m80
-30 c-6 -11 -13 -20 -16 -20 -2 0 0 9 6 20 6 11 13 20 16 20 2 0 0 -9 -6 -20z
m-100 2 c0 -5 -7 -17 -15 -28 -14 -18 -14 -17 -4 9 12 27 19 34 19 19z m55
-81 c-8 -17 -19 -33 -25 -36 -5 -3 -1 10 11 29 25 43 36 48 14 7z m-125 -41
c-6 -11 -13 -20 -16 -20 -2 0 0 9 6 20 6 11 13 20 16 20 2 0 0 -9 -6 -20z
m-200 -10 c-6 -11 -13 -20 -16 -20 -2 0 0 9 6 20 6 11 13 20 16 20 2 0 0 -9
-6 -20z m51 -23 c-10 -9 -11 -8 -5 6 3 10 9 15 12 12 3 -3 0 -11 -7 -18z m230
0 c-10 -9 -11 -8 -5 6 3 10 9 15 12 12 3 -3 0 -11 -7 -18z m-108 -12 c-3 -9
-8 -14 -10 -11 -3 3 -2 9 2 15 9 16 15 13 8 -4z m-201 -17 c-7 -7 -12 -8 -12
-2 0 6 3 14 7 17 3 4 9 5 12 2 2 -3 -1 -11 -7 -17z m168 -45 c0 -5 -10 -19
-21 -33 l-21 -25 18 33 c18 32 24 38 24 25z m-200 -53 c0 -5 -2 -10 -4 -10 -3
0 -8 5 -11 10 -3 6 -1 10 4 10 6 0 11 -4 11 -10z m206 -58 c18 2 30 0 28 -4
-13 -20 -94 0 -94 23 0 6 7 3 17 -6 10 -11 28 -15 49 -13z m-66 -36 c0 -2 -22
-50 -50 -107 -27 -57 -50 -111 -50 -119 -1 -9 -4 -7 -10 6 -6 16 4 45 43 122
29 56 55 102 60 102 4 0 7 -2 7 -4z m13 -61 c-9 -19 -18 -33 -21 -31 -4 5 26
66 33 66 3 0 -3 -16 -12 -35z m8 -32 c-11 -21 -20 -35 -21 -31 0 12 33 78 38
74 2 -2 -6 -21 -17 -43z m-38 -28 c-3 -9 -8 -14 -10 -11 -3 3 -2 9 2 15 9 16
15 13 8 -4z"/>
<path d="M3160 2435 c-8 -9 -8 -15 -2 -15 12 0 26 19 19 26 -2 2 -10 -2 -17
-11z"/>
<path d="M1770 2078 c-47 -3 -109 -9 -138 -11 -29 -3 -50 -2 -47 3 6 10 -31 3
-62 -12 -12 -6 -31 -8 -42 -5 -12 3 -24 1 -27 -4 -3 -5 -24 -6 -46 -2 -32 5
-39 3 -33 -7 6 -10 1 -12 -23 -7 -18 4 -32 2 -34 -5 -2 -5 -25 -11 -50 -12
-25 0 -44 -4 -42 -7 2 -4 -10 -9 -26 -12 -20 -5 -28 -11 -24 -21 5 -12 14 -12
67 1 34 8 74 16 89 18 15 2 36 6 47 10 18 6 34 8 116 20 22 3 65 10 96 15 31
6 70 10 85 9 16 0 40 2 53 5 14 3 65 8 115 12 50 4 98 10 106 15 17 9 -48 8
-180 -3z"/>
<path d="M3184 1979 c-3 -6 -2 -15 4 -21 7 -7 14 -3 21 11 10 17 9 21 -3 21
-8 0 -18 -5 -22 -11z"/>
<path d="M1062 1963 c-18 -7 -38 -11 -45 -7 -7 4 -3 -3 8 -15 18 -19 25 -20
53 -10 30 10 42 32 25 42 -5 2 -23 -2 -41 -10z"/>
<path d="M3285 1893 c-7 -17 -12 -42 -18 -90 -1 -12 -5 -24 -9 -28 -9 -10 2
-36 13 -30 17 11 37 71 38 118 2 47 -10 62 -24 30z"/>
<path d="M908 1882 c-16 -9 -28 -20 -28 -24 0 -13 24 -9 48 8 12 8 26 12 32 9
6 -3 7 1 4 9 -8 20 -22 20 -56 -2z"/>
<path d="M3141 1838 c-7 -27 -17 -48 -22 -48 -5 0 -5 -7 -2 -17 4 -10 2 -14
-4 -10 -6 4 -10 -5 -10 -21 0 -15 -17 -74 -37 -131 -20 -57 -35 -106 -32 -108
13 -14 32 9 44 51 8 31 16 45 24 40 7 -5 9 0 5 15 -6 23 12 81 26 81 4 0 6 4
3 9 -3 5 1 29 10 54 8 25 14 65 12 89 l-4 43 -13 -47z"/>
<path d="M785 1813 c-3 -10 -17 -39 -30 -65 -26 -50 -25 -64 9 -113 12 -16 21
-34 21 -40 0 -5 5 -10 10 -10 25 0 76 -29 71 -40 -3 -8 2 -11 14 -8 27 7 35
36 14 48 -10 6 -28 20 -41 33 -13 12 -28 22 -33 22 -27 0 -46 97 -25 124 8 11
15 28 15 37 0 25 -19 34 -25 12z"/>
<path d="M3751 1738 c15 -28 10 -46 -13 -54 -13 -5 -27 -7 -31 -6 -5 1 -6 -1
-3 -6 12 -19 -115 -109 -136 -96 -4 3 -8 0 -8 -6 0 -7 -6 -10 -14 -7 -8 3 -17
-1 -20 -9 -4 -9 1 -14 14 -14 15 0 20 -7 20 -26 0 -34 23 -26 24 9 1 15 7 32
14 39 11 11 11 8 4 -13 -11 -27 -5 -42 15 -46 7 -2 10 3 7 11 -3 8 3 16 15 19
28 7 27 27 -1 28 -19 1 -20 2 -4 6 10 3 23 0 29 -6 16 -16 25 -14 32 9 8 25
25 17 25 -11 0 -12 -4 -17 -11 -14 -6 4 -5 -1 2 -13 10 -16 9 -30 -4 -73 -9
-30 -19 -70 -22 -89 -13 -65 -66 -218 -80 -230 -8 -7 -13 -16 -10 -20 3 -4 -7
-27 -20 -51 -14 -24 -30 -56 -36 -71 -6 -16 -16 -28 -22 -28 -6 0 -7 -3 -4 -6
10 -11 -13 -45 -25 -38 -7 4 -8 3 -4 -4 7 -12 -70 -122 -85 -122 -5 0 -8 -4
-6 -9 4 -15 -94 -122 -105 -115 -6 4 -8 2 -5 -3 11 -17 -213 -200 -227 -186
-3 4 -6 1 -6 -4 0 -14 -89 -65 -101 -57 -5 3 -9 0 -9 -6 0 -12 -120 -70 -206
-99 -120 -40 -274 -72 -322 -66 -33 3 -41 2 -27 -4 13 -6 -33 -9 -135 -9 -107
-1 -150 2 -140 9 11 8 5 9 -21 5 -39 -7 -196 23 -316 59 -13 4 -23 12 -23 18
0 6 -3 8 -6 4 -14 -13 -228 84 -243 111 -5 9 -12 16 -15 15 -13 -6 -25 -2 -38
11 -8 7 -29 21 -46 30 -19 10 -30 21 -26 28 4 7 3 8 -4 4 -15 -9 -84 43 -75
57 3 5 2 7 -4 4 -10 -6 -144 109 -140 121 1 4 -2 8 -6 9 -14 3 -36 37 -30 47
4 5 1 6 -4 3 -14 -9 -47 29 -37 44 4 7 3 10 -4 5 -13 -8 -64 63 -55 77 3 6 1
7 -4 4 -11 -7 -56 58 -56 81 0 6 -4 12 -8 12 -5 0 -20 21 -34 48 -28 50 -28
43 1 -28 10 -25 28 -58 40 -75 12 -16 24 -36 26 -44 2 -7 13 -25 26 -39 12
-14 20 -27 18 -30 -3 -2 6 -16 19 -30 13 -14 21 -30 18 -36 -3 -6 -3 -8 1 -4
7 6 66 -52 66 -64 0 -6 117 -123 122 -123 11 0 36 -33 30 -40 -4 -4 -2 -5 4
-3 6 1 48 -24 93 -57 45 -33 119 -80 164 -104 45 -25 84 -47 87 -50 3 -3 12
-7 20 -9 8 -2 49 -16 90 -31 41 -16 90 -32 108 -36 18 -4 30 -11 27 -16 -4 -5
0 -6 8 -4 7 3 39 -1 69 -9 31 -8 93 -18 137 -22 45 -3 84 -11 87 -15 7 -11 54
-12 54 -1 0 5 30 5 67 0 40 -6 68 -6 72 0 3 5 43 12 89 16 46 4 108 14 138 22
29 7 61 11 70 7 12 -4 15 -3 10 5 -7 11 12 16 52 15 6 -1 12 2 12 6 0 4 30 18
68 31 74 25 266 122 296 148 15 13 18 14 12 2 -5 -11 -4 -10 6 1 20 24 108 90
108 81 0 -4 5 1 11 11 6 9 15 15 20 11 5 -3 8 0 7 7 -2 7 8 18 22 26 14 7 21
13 16 13 -5 0 4 10 20 22 16 13 32 22 37 20 5 -1 6 2 3 7 -8 12 18 33 29 23 5
-4 5 -1 1 5 -6 12 18 45 87 116 15 16 27 32 27 37 0 5 10 21 23 37 28 33 127
208 127 223 0 6 5 8 12 4 6 -4 8 -3 5 3 -10 16 13 74 26 66 6 -4 8 0 4 10 -3
8 3 39 14 69 23 63 59 207 59 237 0 11 -4 21 -9 21 -12 0 -20 91 -10 110 10
18 12 0 9 -65 -1 -33 1 -38 11 -27 9 8 14 51 16 136 l3 123 -29 -1 c-24 -1
-27 -4 -20 -18z"/>
<path d="M3250 1701 c0 -17 -4 -31 -9 -31 -5 0 -11 -9 -14 -20 -3 -12 -1 -17
5 -14 6 4 7 -8 3 -30 -8 -39 7 -50 24 -18 15 28 18 135 4 139 -9 3 -13 -6 -13
-26z"/>
<path d="M911 1546 c-8 -10 -8 -16 1 -23 21 -17 58 -25 58 -14 0 18 17 12 23
-8 8 -33 107 -53 107 -22 0 19 -32 41 -61 41 -16 0 -29 5 -29 11 0 6 -6 9 -14
6 -8 -3 -20 1 -26 9 -16 18 -44 18 -59 0z m162 -63 c-7 -2 -19 -2 -25 0 -7 3
-2 5 12 5 14 0 19 -2 13 -5z"/>
<path d="M3220 1544 c0 -9 5 -14 12 -12 18 6 21 28 4 28 -9 0 -16 -7 -16 -16z"/>
<path d="M3458 1520 c3 -8 10 -22 16 -30 6 -8 -1 -5 -14 7 -24 21 -70 28 -70
11 0 -4 -8 -8 -19 -8 -22 0 -45 -25 -36 -40 3 -5 -1 -10 -9 -10 -10 0 -13 6
-10 15 8 20 -9 19 -123 -4 -51 -10 -104 -16 -119 -13 -17 3 -25 1 -21 -5 8
-12 -104 -26 -129 -16 -13 5 -15 3 -9 -7 6 -10 -4 -12 -48 -8 -31 2 -54 2 -52
-2 2 -4 -8 -7 -23 -8 -15 0 -76 -6 -137 -12 -143 -15 -746 -14 -900 1 -66 6
-128 12 -137 12 -9 1 -15 4 -13 7 2 3 -28 6 -66 6 -38 1 -76 7 -84 14 -9 7
-25 10 -41 6 -18 -5 -24 -3 -19 4 5 8 -2 11 -21 9 -38 -4 -168 19 -217 38 -42
17 -42 17 -51 -15 -6 -19 -2 -25 31 -39 21 -9 41 -16 44 -15 4 1 22 -3 40 -8
18 -5 53 -12 77 -15 25 -3 48 -7 52 -10 3 -2 20 -6 36 -9 16 -2 63 -10 104
-17 41 -7 83 -12 93 -11 9 0 15 -3 12 -8 -4 -6 6 -7 23 -4 16 3 62 1 103 -5
41 -6 102 -11 137 -12 34 -1 62 -6 62 -10 0 -5 8 -5 17 -2 13 5 15 2 10 -11
-4 -10 -10 -29 -13 -43 -5 -19 -9 -22 -16 -11 -7 9 -8 8 -4 -6 8 -25 -4 -87
-15 -80 -6 3 -7 -18 -3 -52 5 -43 4 -55 -5 -50 -8 6 -10 1 -6 -16 3 -13 7 -57
8 -98 1 -41 6 -78 10 -81 5 -3 9 -22 10 -42 1 -19 4 -33 6 -31 6 5 41 -74 41
-92 0 -8 5 -14 11 -14 5 0 7 -4 4 -10 -3 -5 -1 -10 6 -10 7 0 10 -3 7 -6 -7
-7 111 -124 124 -124 5 0 6 -6 2 -12 -4 -7 -4 -10 1 -6 4 4 31 -5 59 -19 28
-15 53 -27 56 -28 3 0 23 -5 45 -10 22 -4 46 -7 54 -6 7 1 10 -2 7 -8 -4 -6
13 -9 44 -8 27 1 50 5 50 10 0 4 15 7 33 7 17 0 60 9 94 19 34 10 64 16 67 13
3 -3 6 0 6 6 0 10 23 22 43 22 4 0 15 8 25 18 24 22 115 76 124 74 5 -1 7 1 5
6 -3 12 95 112 105 106 5 -3 7 -2 6 3 -2 7 24 53 47 80 25 30 32 43 70 121 21
45 43 82 48 82 4 0 6 4 3 9 -6 10 18 74 25 67 2 -2 5 10 6 27 1 17 6 33 10 36
5 3 9 15 11 26 2 11 15 65 31 120 l28 100 54 11 c30 6 70 16 90 23 20 6 41 11
45 9 10 -3 124 41 139 54 5 5 -6 6 -25 2 l-35 -5 33 17 c39 20 32 31 -24 36
-34 3 -41 0 -36 -12z m-312 -279 c-51 -170 -145 -391 -167 -391 -4 0 -10 -11
-13 -25 -9 -36 -209 -235 -235 -235 -5 0 -11 -4 -13 -8 -6 -15 -80 -52 -90
-46 -6 4 -8 3 -5 -3 17 -26 -258 -78 -297 -56 -15 8 -9 13 31 28 71 27 181
106 254 183 96 101 126 136 143 170 9 17 24 36 33 41 10 6 14 11 10 11 -4 0
-3 9 3 20 6 11 16 18 21 14 6 -3 9 0 7 7 -1 8 20 59 48 114 28 55 68 141 89
192 l39 92 70 11 c39 6 76 13 81 14 26 8 24 -21 -9 -133z m-186 89 c0 -37
-149 -342 -163 -333 -6 3 -7 2 -4 -4 8 -12 -29 -73 -45 -73 -6 0 -8 -3 -5 -6
8 -8 -24 -64 -35 -64 -4 0 -8 -6 -8 -13 0 -7 -16 -28 -36 -45 -20 -18 -32 -32
-28 -32 13 0 -76 -88 -136 -135 -72 -55 -164 -102 -217 -111 -53 -8 -54 3 -4
37 105 73 319 365 442 604 28 55 57 105 63 110 7 6 11 15 9 21 -5 15 27 41 57
47 47 8 110 7 110 -3z m-190 -14 c0 -15 -74 -146 -83 -146 -6 0 -8 -3 -4 -6 7
-8 -32 -84 -44 -84 -5 0 -9 -8 -9 -18 0 -10 -9 -28 -20 -40 -12 -12 -18 -22
-16 -22 7 0 -57 -101 -103 -163 -278 -373 -416 -409 -314 -82 14 44 31 91 38
105 7 14 17 36 22 50 23 60 147 300 155 300 5 0 7 3 4 8 -2 4 8 25 23 47 l27
40 100 -3 c71 -2 95 0 84 7 -11 8 6 11 63 11 42 0 77 -2 77 -4z m-585 -18 c8
-8 -25 -68 -38 -68 -4 0 -6 -4 -2 -9 3 -5 -5 -34 -18 -63 -13 -29 -32 -78 -43
-108 -21 -65 -19 -53 -28 -112 -5 -27 -11 -48 -15 -48 -7 0 -5 -182 3 -222 8
-40 -5 -34 -36 15 -69 109 -99 261 -79 404 6 48 21 117 31 153 l20 65 99 0
c55 0 102 -3 106 -7z m185 -55 c-18 -32 -38 -61 -44 -65 -6 -4 -8 -8 -4 -8 4
0 -19 -53 -51 -117 -32 -65 -64 -133 -71 -150 -7 -18 -15 -33 -19 -33 -4 0 -7
-8 -8 -17 -1 -10 -13 -56 -27 -102 -14 -47 -26 -96 -26 -110 0 -52 -17 -55
-35 -8 -25 67 -22 289 5 322 5 6 11 28 15 50 4 22 12 49 18 60 6 11 11 25 12
30 1 25 28 74 38 68 6 -3 7 -1 3 6 -7 11 24 91 46 119 7 8 39 12 95 12 l85 0
-32 -57z"/>
</g>
</svg>
